<?xml version="1.0" encoding="UTF-8"?>
<svg id="Layer_2" data-name="Layer 2" xmlns="http://www.w3.org/2000/svg" viewBox="0 0 1999.45 1197.05">
  <defs>
    <style>
      .cls-1 {
        fill: #000000;
      }
    </style>
  </defs>
  <g id="LOGO">
    <g>
      <g>
        <path class="cls-1" d="M403.65,609.5c-76.33-2.25-140.27-3.01-168.45-5.69,24.33-2.03,88.67-3.19,163.66-8.06l.09.25c-42.5,2.76-81.67,4.33-112.64,5.56-20.67.83-37.39,1.49-48.1,2.26,20.45,1.71,56.41,2.61,101.35,3.73,19.59.49,41.17,1.03,64.01,1.7l.08.25Z"/>
        <path class="cls-1" d="M1241.31,580.7v.25c-65.84-6.37-122.66-13.59-169.16-21.48-64.72-10.98-109.53-23.32-133.18-36.66-30.71-17.33-69.17-55.58-114.32-113.69-36.11-46.48-76.56-105.7-120.23-176.02-63.05-101.55-114.84-197.46-129.46-224.92,12.97,28.42,57.75,128.08,96.37,231.75,26.71,71.71,45.28,131.28,55.21,177.06,12.42,57.3,11.24,93.07-3.52,106.32-30.51,27.41-98.18,48.02-201.13,61.25-9.73,1.25-19.52,2.41-29.32,3.47l-.09-.23c96.32-10.49,190.96-29.26,230.38-64.67C786.33,466.12,576.96,13.02,571.18.52c6.4,12.19,235.31,447.25,367.91,522.07,48.8,27.53,178.58,46.13,302.22,58.11Z"/>
        <path class="cls-1" d="M1169.7,1196.61c-5.14-10.72-225.35-468.43-359.22-535.56-58.96-29.56-186.95-41.84-308.77-47.81l-.09-.24c31.92,1.56,64.26,3.55,95.48,6.16,105.27,8.78,175.1,22.42,213.49,41.67,30.93,15.51,69.08,53.34,113.38,112.44,35.42,47.26,74.85,108.16,117.18,181,60.81,104.67,110.36,204.49,124.68,233.81-12.91-30.77-57.01-137.42-94.98-247.77-26.33-76.51-44.6-139.8-54.31-188.12-12.15-60.48-10.84-97.59,3.9-110.3,13.26-11.43,47.32-20.79,101.24-27.83,32.75-4.27,72.86-7.7,119.63-10.24v.25c-100.14,5.43-195.6,16.36-220.71,38.01-63.56,54.8,144.39,543.48,149.1,554.53Z"/>
        <path class="cls-1" d="M1495.72,598.82c-28.02-.25-90.66-.47-161.38,1.36v-11.24c72.46,5.5,133.83,8.61,161.38,9.88Z"/>
      </g>
      <path class="cls-1" d="M1121.68,614.06c-53.92,7.04-87.98,16.4-101.24,27.83-14.74,12.71-16.05,49.82-3.9,110.3,9.71,48.32,27.98,111.61,54.31,188.12,37.97,110.35,82.07,217,94.98,247.77-14.32-29.32-63.87-129.14-124.68-233.81-42.33-72.84-81.76-133.74-117.18-181-44.3-59.1-82.45-96.93-113.38-112.44-38.39-19.25-108.22-32.89-213.49-41.67-31.22-2.61-63.56-4.6-95.48-6.16l.09.24.1.28c121.41,5.99,249.82,18.3,308.56,47.75,30.86,15.48,68.95,53.26,113.2,112.3,35.41,47.24,74.82,108.12,117.14,180.95,72.06,124,128.29,241.22,128.85,242.39.04.09.13.14.23.14.03,0,.07-.01.1-.02.12-.06.18-.21.13-.33-.54-1.25-53.89-126.32-98.7-256.56-26.32-76.48-44.58-139.75-54.29-188.05-12.11-60.29-10.86-97.24,3.74-109.82,13.18-11.37,47.15-20.69,100.98-27.71,32.73-4.28,72.81-7.71,119.56-10.24v-.5c-46.77,2.54-86.88,5.97-119.63,10.24ZM1511.26,599c-.95-.03-78.75-3.11-176.92-10.56v.25c94.56,7.19,169.65,10.27,176.41,10.54-6.91-.09-84.52-1.19-176.41,1.2v.26c46.76-1.22,89.99-1.53,122.01-1.53s54.19.33,54.89.34h.01c.14,0,.25-.11.25-.24.01-.14-.1-.25-.24-.26ZM1072.24,558.98c-64.67-10.98-109.42-23.29-133.02-36.61-30.65-17.29-69.06-55.5-114.17-113.56-36.1-46.46-76.54-105.67-120.2-175.97C630.52,113.13,571.86,1.26,571.27.14c-.06-.12-.21-.17-.33-.11s-.17.21-.12.33c.54,1.17,54.57,117.67,100.04,239.74,26.7,71.69,45.27,131.24,55.19,176.99,12.38,57.12,11.25,92.73-3.36,105.85-30.44,27.34-98.02,47.91-200.86,61.13-9.77,1.26-19.6,2.42-29.44,3.49l.09.24.09.23c9.8-1.06,19.59-2.22,29.32-3.47,102.95-13.23,170.62-33.84,201.13-61.25,14.76-13.25,15.94-49.02,3.52-106.32-9.93-45.78-28.5-105.35-55.21-177.06-38.62-103.67-83.4-203.33-96.37-231.75,14.62,27.46,66.41,123.37,129.46,224.92,43.67,70.32,84.12,129.54,120.23,176.02,45.15,58.11,83.61,96.36,114.32,113.69,23.65,13.34,68.46,25.68,133.18,36.66,46.5,7.89,103.32,15.11,169.16,21.48v-.5c-65.8-6.38-122.6-13.58-169.07-21.47ZM403.65,609.5l-.08-.25c-22.84-.67-44.42-1.21-64.01-1.7-44.94-1.12-80.9-2.02-101.35-3.73,10.71-.77,27.43-1.43,48.1-2.26,30.97-1.23,70.14-2.8,112.64-5.56l-.09-.25-.08-.24c-42.44,2.76-81.56,4.32-112.49,5.55-22.72.91-40.67,1.63-51.11,2.5-.13,0-.23.12-.23.24,0,.13.09.24.22.25,19.83,1.89,57.14,2.82,104.38,4,19.78.49,41.39,1.03,64.19,1.71l-.09-.26Z"/>
    </g>
  </g>
  <g id="A_-_dx" data-name="A - dx">
    <path class="cls-1" d="M1334.34,588.69V222.92h-93.03v358.03c-65.84-6.37-122.66-13.59-169.16-21.48-64.72-10.98-109.53-23.32-133.18-36.66-30.71-17.33-69.17-55.58-114.32-113.69-36.11-46.48-76.56-105.7-120.23-176.02-63.05-101.55-114.84-197.46-129.46-224.92,12.97,28.42,57.75,128.08,96.37,231.75,26.71,71.71,45.28,131.28,55.21,177.06,12.42,57.3,11.24,93.07-3.52,106.32-30.51,27.41-98.18,48.02-201.13,61.25-9.73,1.25-19.52,2.41-29.32,3.47l-.09-.23-.09-.24-132.3-364.64h-104.14L0,902.85h94.42l209.67-579.03,94.69,271.69.08.24.09.25c-42.5,2.76-81.67,4.33-112.64,5.56-20.67.83-37.39,1.49-48.1,2.26,20.45,1.71,56.41,2.61,101.35,3.73,19.59.49,41.17,1.03,64.01,1.7l.08.25.09.26,102.15,293.09h100.9l-104.98-289.33-.1-.28-.09-.24c31.92,1.56,64.26,3.55,95.48,6.16,105.27,8.78,175.1,22.42,213.49,41.67,30.93,15.51,69.08,53.34,113.38,112.44,35.42,47.26,74.85,108.16,117.18,181,60.81,104.67,110.36,204.49,124.68,233.81-12.91-30.77-57.01-137.42-94.98-247.77-26.33-76.51-44.6-139.8-54.31-188.12-12.15-60.48-10.84-97.59,3.9-110.3,13.26-11.43,47.32-20.79,101.24-27.83,32.75-4.27,72.86-7.7,119.63-10.24v299.03h93.03v-302.42c91.89-2.39,169.5-1.29,176.41-1.2-6.76-.27-81.85-3.35-176.41-10.54ZM1334.34,600.18v-11.24c72.46,5.5,133.83,8.61,161.38,9.88-28.02-.25-90.66-.47-161.38,1.36Z"/>
  </g>
  <g id="S_-_dowm" data-name="S - dowm">
    <path class="cls-1" d="M1999.45,712.62c0,75.29-27.38,129.13-82.15,161.53-54.78,32.4-118.42,48.6-190.93,48.6-84.54,0-150.73-21.6-198.56-64.8-47.83-42.88-71.27-101.05-70.35-174.49h86.55c2.16,38.57,11.26,69.89,27.31,93.96,30.55,45.05,84.39,67.57,161.53,67.57,34.56,0,66.03-4.93,94.43-14.81,54.92-19.13,82.39-53.38,82.39-102.75,0-37.03-11.58-63.42-34.72-79.15-23.45-15.43-60.17-28.85-110.16-40.27l-44.43-10.04-47.68-10.78c-60.16-13.58-102.75-28.55-127.74-44.9-43.21-28.39-64.8-70.82-64.8-127.28,0-61.1,21.13-111.24,63.41-150.43,42.27-39.18,102.13-58.78,179.59-58.78,71.28,0,131.83,17.2,181.66,51.6,49.83,34.41,74.76,89.41,74.76,165.01h-86.56c-4.63-36.41-14.51-64.34-29.62-83.78-28.08-35.47-75.76-53.22-143.02-53.22-54.31,0-93.34,11.41-117.1,34.24-23.77,22.85-35.64,49.38-35.64,79.62,0,33.32,13.89,57.71,41.65,73.13,17,9.22,54.03,20.59,111.09,34.11,4.06.96,8.23,1.93,12.49,2.92l6.84,1.56,88.51,20.19c45.98,10.49,81.47,24.84,106.46,43.05,43.2,31.78,64.79,77.91,64.79,138.39Z"/>
  </g>
</svg>